<svg xmlns="http://www.w3.org/2000/svg" viewBox="0 0 24 24" fill="none">
  <rect width="24" height="24" rx="8" fill="#86EFAC" fill-opacity="0.15"/>
  
  <g transform="translate(4.8, 4.8) scale(0.6)" 
     fill="#87e4abff" 
     stroke="#87e4abff" 
     stroke-width="2" 
     stroke-linecap="round" 
     stroke-linejoin="round">
    
    <path d="M11.017 2.814a1 1 0 0 1 1.966 0l1.051 5.558a2 2 0 0 0 1.594 1.594l5.558 1.051a1 1 0 0 1 0 1.966l-5.558 1.051a2 2 0 0 0-1.594 1.594l-1.051 5.558a1 1 0 0 1-1.966 0l-1.051-5.558a2 2 0 0 0-1.594-1.594l-5.558-1.051a1 1 0 0 1 0-1.966l5.558-1.051a2 2 0 0 0 1.594-1.594z" />
    
    <path d="M20 2v4" />
    <path d="M22 4h-4" />
    
    <circle cx="3" cy="20" r="3" stroke="none" />
  </g>
</svg>